<svg width="43" height="12" viewBox="0 0 43 12" fill="none" xmlns="http://www.w3.org/2000/svg">
<path d="M3.45573 11H5.00687L7.14963 3.37358H7.22917L9.37193 11H10.9181L13.7469 0.818182H12.1262L10.1475 8.7081H10.053L7.98982 0.818182H6.38897L4.32576 8.70312H4.2313L2.24764 0.818182H0.63187L3.45573 11ZM16.7507 11.169C18.0135 11.169 18.7244 10.5277 19.0078 9.95597H19.0675V11H20.5192V5.92898C20.5192 3.70668 18.7692 3.2642 17.5561 3.2642C16.174 3.2642 14.9013 3.82102 14.4041 5.21307L15.8011 5.53125C16.0199 4.98935 16.5767 4.46733 17.576 4.46733C18.5355 4.46733 19.0277 4.96946 19.0277 5.83452V5.86932C19.0277 6.41122 18.4709 6.40128 17.0987 6.56037C15.652 6.7294 14.1704 7.10724 14.1704 8.84233C14.1704 10.3438 15.299 11.169 16.7507 11.169ZM17.0739 9.97585C16.2337 9.97585 15.6271 9.59801 15.6271 8.86222C15.6271 8.06676 16.3331 7.78338 17.1932 7.66903C17.6754 7.6044 18.8189 7.47514 19.0327 7.26136V8.24574C19.0327 9.15057 18.3118 9.97585 17.0739 9.97585ZM26.3157 3.36364H24.7497V1.53409H23.2632V3.36364H22.1446V4.55682H23.2632V9.06605C23.2582 10.4531 24.3172 11.1243 25.4905 11.0994C25.9628 11.0945 26.2809 11.005 26.4549 10.9403L26.1865 9.71236C26.087 9.73224 25.9031 9.77699 25.6645 9.77699C25.1822 9.77699 24.7497 9.6179 24.7497 8.75781V4.55682H26.3157V3.36364ZM31.3467 11.1541C33.1514 11.1541 34.3197 10.0703 34.4838 8.58381H33.037C32.8481 9.40909 32.2068 9.89631 31.3566 9.89631C30.0988 9.89631 29.2884 8.8473 29.2884 7.18182C29.2884 5.54616 30.1137 4.51705 31.3566 4.51705C32.3012 4.51705 32.8779 5.11364 33.037 5.82955H34.4838C34.3247 4.28835 33.0668 3.2642 31.3318 3.2642C29.1791 3.2642 27.787 4.88494 27.787 7.21662C27.787 9.51847 29.1293 11.1541 31.3467 11.1541ZM37.8119 6.46591C37.8119 5.24787 38.5825 4.55185 39.6415 4.55185C40.6656 4.55185 41.2771 5.20312 41.2771 6.32173V11H42.7636V6.14276C42.7636 4.23864 41.7196 3.2642 40.1486 3.2642C38.9604 3.2642 38.2445 3.78125 37.8865 4.60653H37.792V0.818182H36.3254V11H37.8119V6.46591Z" fill="#2264D1"/>
</svg>
